<svg xmlns="http://www.w3.org/2000/svg" width="170" height="28">
  <title>
    Moneybird Logo
  </title>
  <g fill="none" fill-rule="evenodd">
    <path fill="#0073E6" d="M19.6231019,23.7057744 C11.657519,23.093883 9.07019181,18.727137 8.34791195,15.7060866 C8.34791195,15.7060866 9.90539106,16.1273985 11.9399619,16.4058484 C11.9457378,16.4067213 12.4901191,16.4823712 12.5010933,16.3374725 C12.5224643,16.0584407 7.91500611,14.7028524 5.68260975,10.8781671 C3.94058973,7.89348693 3.83402385,5.03159237 3.83402385,5.03159237 C8.50848276,5.93357216 11.3811408,7.06366553 26.0875211,6.69734536 C30.6415519,6.69734536 32.6732347,7.63889587 32.6732347,13.2172044 C32.6732347,17.1125932 30.9687582,23.6301245 19.6231019,23.7057744 M40,13.0088761 C40,12.2788544 39.2260256,11.8106978 38.2689542,11.5101349 L38.2880148,11.4906405 C38.2880148,11.4906405 38.2308331,11.4859851 38.140151,11.4711461 C37.9862225,11.4260471 37.8285397,11.3847306 37.6691241,11.3474876 C37.4536819,11.2680552 37.2229336,11.1464334 37.0499445,10.9596363 C36.8498086,10.743743 36.7290917,10.4690757 36.656315,10.2342699 C36.0492649,6.18787226 33.7539109,2.48597266 26.0875211,2.48597266 L12.7719844,2.48597266 C12.3211731,2.47084268 11.0975427,2.40043006 8.1983154,2.08328233 C5.38659342,1.77573632 2.87088777,0.890050372 2.84749526,0.881903457 L0.379441024,0 L0.0730280188,2.62039675 C0.0357732801,2.93870832 -0.764192814,10.3299962 3.9749565,14.0810682 L3.97091335,14.1244215 C3.78868281,16.108777 4.5482174,20.437698 8.66529922,23.9391253 C17.5896863,31.5294307 29.7191361,26.7649407 32.8219649,23.4261607 C34.763832,21.3361863 36.1566972,18.8679622 36.6381208,15.905686 C36.7085872,15.6592419 36.8327696,15.3551874 37.0499445,15.1206727 C37.1440922,15.0191272 37.2555676,14.9376581 37.3719525,14.870737 C37.6835639,14.7907227 37.9943088,14.697906 38.2874372,14.5896684 L38.2880148,14.5896684 L38.2880148,14.5896684 C39.2364223,14.240224 40,13.7339515 40,13.0088761 M28.3291589,9.22463451 C27.2961341,9.22463451 26.6007123,9.86533112 26.6007123,11.0466337 C26.6007123,12.1476309 27.2961341,12.7685422 28.3291589,12.7685422 C29.3431232,12.7685422 30.0783989,12.1077692 30.0783989,11.0265573 C30.0783989,9.8452548 29.4621073,9.22463451 28.3291589,9.22463451"/>
    <path fill="#0073E6" d="M54.3645406 20.7537406C54.0525115 20.9218085 53.4762994 21.0420041 52.6359044 21.0420041 51.7955094 21.0420041 51.2192973 20.9218085 50.8830879 20.7537406L50.8830879 9.29474949C51.5315837 8.93442004 52.5638779 8.74215854 53.7160448 8.74215854L53.9087157 10.7121311 54.1006149 10.7121311C54.6526466 9.53488332 55.8292511 8.50202471 57.9903036 8.50202471 59.4066534 8.50202471 60.8232605 8.91048387 61.4714991 10.5919355L61.6636555 10.5919355C62.1678411 9.46281743 63.3439311 8.50202471 65.4813177 8.50202471 67.2817232 8.50202471 69.394415 9.15061771 69.394415 13.114499L69.394415 20.7537406C69.0823859 20.9218085 68.5064311 21.0420041 67.6657788 21.0420041 66.8253838 21.0420041 66.249429 20.9218085 65.9132195 20.7537406L65.9132195 13.7391558C65.9132195 12.4898421 65.5049836 11.6971174 64.1367372 11.6971174 62.9359524 11.6971174 62.2396104 12.3215168 61.8316316 13.0663693 61.8555547 13.2825669 61.8797351 13.7870281 61.8797351 14.2914894L61.8797351 20.7537406C61.5677059 20.9218085 61.0151597 21.0420041 60.1747647 21.0420041 59.3348842 21.0420041 58.782338 20.9218085 58.4461285 20.7537406L58.4461285 13.7391558C58.4461285 12.4898421 58.0378925 11.6971174 56.6696461 11.6971174 55.4451955 11.6971174 54.7727766 12.3215168 54.3645406 13.0663693L54.3645406 20.7537406zM78.0377761 18.5675189C79.6946431 18.5675189 80.4388312 17.1743308 80.4388312 14.7958991 80.4388312 12.6820522 79.5745131 11.3606726 78.0377761 11.3606726 76.4292699 11.3606726 75.6369783 12.6820522 75.6369783 14.7958991 75.6369783 17.1743308 76.4534502 18.5675189 78.0377761 18.5675189M84.0164908 14.7719629C84.0164908 19.0961736 81.7353084 21.4264756 78.0377761 21.4264756 74.1722678 21.4264756 72.0595759 19.2163693 72.0595759 14.7719629 72.0595759 10.8322752 74.4845541 8.50197323 78.0377761 8.50197323 81.6635391 8.50197323 84.0164908 10.6881434 84.0164908 14.7719629M90.1865388 20.7537406C89.8745097 20.9218085 89.2982976 21.0420041 88.4579026 21.0420041 87.6175076 21.0420041 87.0412955 20.9218085 86.705086 20.7537406L86.705086 9.29474949C87.3535819 8.93442004 88.3858761 8.74215854 89.538043 8.74215854L89.7307139 10.7121311 89.9226131 10.7121311C90.4985679 9.46281743 91.7232758 8.50202471 93.9082514 8.50202471 95.7328372 8.50202471 97.8938897 9.15061771 97.8938897 13.114499L97.8938897 20.7537406C97.5816033 20.9218085 97.0056485 21.0420041 96.1652535 21.0420041 95.3246012 21.0420041 94.7486464 20.9218085 94.4124369 20.7537406L94.4124369 13.7391558C94.4124369 12.4898421 93.9800206 11.6971174 92.5636708 11.6971174 91.3150398 11.6971174 90.6186978 12.3215168 90.1865388 13.0663693L90.1865388 20.7537406zM108.385785 13.5708562C108.577685 12.3215426 108.121345 11.0964224 106.392709 11.0964224 104.904333 11.0964224 103.991654 12.0574725 103.895704 13.5708562L108.385785 13.5708562zM103.991654 16.0934197C104.135964 17.7748713 105.336234 18.5915323 107.713366 18.5915323 109.249846 18.5915323 110.594427 18.2553964 111.459002 17.8708734 111.531029 18.7837938 111.146973 19.9607841 110.594427 20.585441 109.802392 21.0420299 108.457555 21.4262955 106.800945 21.4262955 102.599227 21.4262955 100.366405 18.9999914 100.366405 15.1084334 100.366405 11.0964224 102.767203 8.50205045 106.537019 8.50205045 110.042138 8.50205045 111.651159 10.6640271 111.651159 13.8351836 111.651159 14.6039722 111.506848 15.4687629 111.290769 16.0934197L103.991654 16.0934197zM131.869643 18.3514756C132.205852 18.4474777 132.758398 18.5195436 133.286507 18.5195436 135.542995 18.5195436 136.479596 17.1502917 136.479596 14.7960535 136.479596 12.6098833 135.615536 11.5530885 134.078799 11.5530885 132.974478 11.5530885 132.325982 12.0572924 131.869643 12.658013L131.869643 18.3514756zM131.845977 10.4239705C132.277879 9.43898421 133.358533 8.50212766 135.183119 8.50212766 137.656201 8.50212766 140.056999 10.0394475 140.056999 14.4835964 140.056999 19.047941 137.536071 21.4263727 133.190043 21.4263727 131.485587 21.4263727 129.708847 21.0660432 128.436551 20.5134523L128.436551 3.72132807C129.252765 3.26499657 130.381266 3.02486273 131.917746 3.02486273L131.917746 6.89248456C131.917746 7.94953672 131.821796 9.43898421 131.653563 10.4239705L131.845977 10.4239705zM142.697928 9.17460535C143.033623 9.00653741 143.610349 8.8863418 144.450744 8.8863418 145.290625 8.8863418 145.867094 9.00653741 146.179381 9.17460535L146.179381 20.753792C145.867094 20.92186 145.290625 21.0420556 144.450744 21.0420556 143.610349 21.0420556 143.033623 20.92186 142.697928 20.753792L142.697928 9.17460535zM155.902805 8.50205045C156.359144 8.50205045 156.7432 8.57411633 157.031306 8.71824811 157.367515 9.31871139 157.535492 9.99149794 157.535492 10.9044183 157.535492 11.6008837 157.439542 12.033279 157.319412 12.3696723 156.86333 12.1053449 156.40699 11.9614705 155.662545 11.9614705 154.438094 11.9614705 153.525673 12.8020676 153.069848 14.0513813L153.069848 20.7537663C152.757562 20.9218342 152.181092 21.0420299 151.341212 21.0420299 150.500817 21.0420299 149.92409 20.9218342 149.588395 20.7537663L149.588395 9.29477522C150.236377 8.93444578 151.244748 8.74218428 152.397172 8.74218428L152.637432 10.9522907 152.829588 10.9522907C153.165798 9.6311685 153.933909 8.50205045 155.902805 8.50205045M123.797272 8.79033974C122.957134 8.79033974 122.380665 8.91053535 122.068635 9.07860329L122.068635 16.7659746C121.612553 17.5345058 120.916211 18.1830988 119.619734 18.1830988 118.178947 18.1830988 117.722865 17.3664379 117.722865 16.0934454L117.722865 9.07860329C117.386912 8.91053535 116.810443 8.79033974 115.970048 8.79033974 115.12991 8.79033974 114.553698 8.91053535 114.241412 9.07860329L114.241412 16.7178449C114.241412 20.6817261 116.426387 21.3303191 118.299077 21.3303191 120.508233 21.3303191 121.431715 20.646208 121.960081 19.445024L122.119054 19.445024C122.124713 21.8684969 122.129858 21.7549931 122.110822 22.1446637 122.032879 23.7429822 120.795824 24.4736788 118.548083 24.4736788 117.073597 24.4736788 115.783551 24.1511839 114.954217 23.782361 114.885277 24.6579616 115.253642 25.787337 115.783551 26.3867708 116.543945 26.824571 117.833734 27.1936513 119.423205 27.1936513 122.946587 27.1936513 125.541085 25.2720659 125.541085 22.2942004 125.541085 21.5403397 125.544172 16.6913349 125.545715 14.0223233L125.547001 14.0205216 125.547001 12.2731812 125.547001 12.2667467 125.547001 9.07860329C125.211049 8.91053535 124.637667 8.79033974 123.797272 8.79033974M166.694923 12.6580388C166.238583 12.0573181 165.590087 11.5528569 164.485767 11.5528569 162.94903 11.5528569 162.084969 12.6099091 162.084969 14.7960793 162.084969 17.1503174 163.021571 18.5195693 165.278058 18.5195693 165.806167 18.5195693 166.358713 18.4475034 166.694923 18.3515014L166.694923 12.6580388zM166.911002 10.4239962C166.742769 9.43900995 166.646819 7.94956246 166.646819 6.8925103L166.646819 3.02463109C168.183299 3.02463109 169.163949 3.26272368 170 3.71905518L170 20.4927364C168.707867 21.0453273 167.078978 21.4263984 165.374522 21.4263984 161.028494 21.4263984 158.507566 19.0479667 158.507566 14.4836222 158.507566 10.0394732 160.908364 8.5021534 163.381446 8.5021534 165.206032 8.5021534 166.286687 9.43900995 166.718588 10.4239962L166.911002 10.4239962z"/>
  </g>
</svg>
