<svg class="h-6 w-auto" viewBox="0 0 727 113" version="1.1" xmlns="http://www.w3.org/2000/svg" xmlns:xlink="http://www.w3.org/1999/xlink">
    <g stroke="none" stroke-width="1" fill="none" fill-rule="evenodd">
        <g transform="translate(-233.000000, -255.000000)" fill="#000000" fill-rule="nonzero">
            <path d="M265.988,368.008 C276.74,368.008 285.236,365.848 291.476,361.528 C297.716,357.208 300.836,351.448 300.836,344.248 C300.836,338.776 299.42,334.552 296.588,331.576 C293.756,328.6 290.372,326.488 286.436,325.24 C282.5,323.992 277.46,322.888 271.316,321.928 C265.172,320.872 260.636,319.744 257.708,318.544 C254.78,317.344 253.316,315.304 253.316,312.424 C253.316,309.832 254.684,307.744 257.42,306.16 C260.156,304.576 264.164,303.784 269.444,303.784 C277.604,303.784 284.948,305.704 291.476,309.544 L291.476,309.544 L298.388,295.864 C295.028,293.848 290.708,292.24 285.428,291.04 C280.148,289.84 274.868,289.24 269.588,289.24 C259.22,289.24 250.988,291.424 244.892,295.792 C238.796,300.16 235.748,305.992 235.748,313.288 C235.748,318.856 237.212,323.2 240.14,326.32 C243.068,329.44 246.524,331.624 250.508,332.872 C254.492,334.12 259.652,335.224 265.988,336.184 C272.036,337.144 276.428,338.152 279.164,339.208 C281.9,340.264 283.268,342.136 283.268,344.824 C283.268,350.488 277.892,353.32 267.14,353.32 C262.436,353.32 257.66,352.624 252.812,351.232 C247.964,349.84 243.812,347.992 240.356,345.688 L240.356,345.688 L233.444,359.368 C236.996,361.864 241.748,363.928 247.7,365.56 C253.652,367.192 259.748,368.008 265.988,368.008 Z M339.572,368.008 C345.332,368.008 350.252,367.12 354.332,365.344 C358.412,363.568 361.556,361 363.764,357.64 L363.764,357.64 L363.764,367 L380.756,367 L380.756,321.928 C380.756,310.984 377.756,302.8 371.756,297.376 C365.756,291.952 357.092,289.24 345.764,289.24 C339.428,289.24 333.428,290.056 327.764,291.688 C322.1,293.32 317.252,295.672 313.22,298.744 L313.22,298.744 L320.276,311.848 C323.156,309.448 326.684,307.576 330.86,306.232 C335.036,304.888 339.284,304.216 343.604,304.216 C349.94,304.216 354.716,305.656 357.932,308.536 C361.148,311.416 362.756,315.544 362.756,320.92 L362.756,320.92 L362.756,322.072 L342.884,322.072 C331.844,322.072 323.756,324.16 318.62,328.336 C313.484,332.512 310.916,338.056 310.916,344.968 C310.916,349.384 312.092,353.344 314.444,356.848 C316.796,360.352 320.132,363.088 324.452,365.056 C328.772,367.024 333.812,368.008 339.572,368.008 Z M343.316,354.904 C338.708,354.904 335.108,353.944 332.516,352.024 C329.924,350.104 328.628,347.512 328.628,344.248 C328.628,337.432 333.812,334.024 344.18,334.024 L344.18,334.024 L362.756,334.024 L362.756,342.952 C361.316,346.792 358.844,349.744 355.34,351.808 C351.836,353.872 347.828,354.904 343.316,354.904 Z M421.796,367 L421.796,328.12 C421.796,320.632 423.716,314.896 427.556,310.912 C431.396,306.928 436.628,304.936 443.252,304.936 C449.108,304.936 453.62,306.64 456.788,310.048 C459.956,313.456 461.54,318.52 461.54,325.24 L461.54,325.24 L461.54,367 L479.54,367 L479.54,322.936 C479.54,311.8 476.612,303.4 470.756,297.736 C464.9,292.072 457.124,289.24 447.428,289.24 C441.764,289.24 436.676,290.152 432.164,291.976 C427.652,293.8 423.908,296.488 420.932,300.04 L420.932,300.04 L420.932,290.104 L403.796,290.104 L403.796,367 L421.796,367 Z M535.7,368.008 C540.98,368.008 545.804,367.096 550.172,365.272 C554.54,363.448 558.212,360.712 561.188,357.064 L561.188,357.064 L561.188,367 L578.468,367 L578.468,260.152 L560.468,260.152 L560.468,299.608 C557.492,296.152 553.892,293.56 549.668,291.832 C545.444,290.104 540.788,289.24 535.7,289.24 C528.308,289.24 521.66,290.872 515.756,294.136 C509.852,297.4 505.22,302.008 501.86,307.96 C498.5,313.912 496.82,320.776 496.82,328.552 C496.82,336.328 498.5,343.216 501.86,349.216 C505.22,355.216 509.852,359.848 515.756,363.112 C521.66,366.376 528.308,368.008 535.7,368.008 Z M537.86,352.6 C533.54,352.6 529.652,351.616 526.196,349.648 C522.74,347.68 520.004,344.872 517.988,341.224 C515.972,337.576 514.964,333.352 514.964,328.552 C514.964,323.752 515.972,319.528 517.988,315.88 C520.004,312.232 522.74,309.424 526.196,307.456 C529.652,305.488 533.54,304.504 537.86,304.504 C542.18,304.504 546.068,305.488 549.524,307.456 C552.98,309.424 555.716,312.232 557.732,315.88 C559.748,319.528 560.756,323.752 560.756,328.552 C560.756,333.352 559.748,337.576 557.732,341.224 C555.716,344.872 552.98,347.68 549.524,349.648 C546.068,351.616 542.18,352.6 537.86,352.6 Z M636.644,368.008 C644.516,368.008 651.572,366.328 657.812,362.968 C664.052,359.608 668.924,354.928 672.428,348.928 C675.932,342.928 677.684,336.136 677.684,328.552 C677.684,320.968 675.932,314.2 672.428,308.248 C668.924,302.296 664.052,297.64 657.812,294.28 C651.572,290.92 644.516,289.24 636.644,289.24 C628.868,289.24 621.86,290.92 615.62,294.28 C609.38,297.64 604.508,302.296 601.004,308.248 C597.5,314.2 595.748,320.968 595.748,328.552 C595.748,336.136 597.5,342.928 601.004,348.928 C604.508,354.928 609.38,359.608 615.62,362.968 C621.86,366.328 628.868,368.008 636.644,368.008 Z M636.644,352.6 C630.02,352.6 624.572,350.392 620.3,345.976 C616.028,341.56 613.892,335.752 613.892,328.552 C613.892,321.352 616.028,315.544 620.3,311.128 C624.572,306.712 630.02,304.504 636.644,304.504 C643.268,304.504 648.74,306.712 653.06,311.128 C657.38,315.544 659.54,321.352 659.54,328.552 C659.54,335.752 657.38,341.56 653.06,345.976 C648.74,350.392 643.268,352.6 636.644,352.6 Z M712.964,367 L712.964,329.704 C712.964,322.024 714.932,316.144 718.868,312.064 C722.804,307.984 728.276,305.944 735.284,305.944 C736.532,305.944 737.924,306.088 739.46,306.376 L739.46,306.376 L739.46,289.24 C726.404,289.24 717.284,293.272 712.1,301.336 L712.1,301.336 L712.1,290.104 L694.964,290.104 L694.964,367 L712.964,367 Z M763.796,277.432 C767.156,277.432 769.916,276.352 772.076,274.192 C774.236,272.032 775.316,269.368 775.316,266.2 C775.316,263.224 774.212,260.752 772.004,258.784 C769.796,256.816 767.06,255.832 763.796,255.832 C760.532,255.832 757.796,256.864 755.588,258.928 C753.38,260.992 752.276,263.56 752.276,266.632 C752.276,269.704 753.38,272.272 755.588,274.336 C757.796,276.4 760.532,277.432 763.796,277.432 Z M772.724,367 L772.724,290.104 L754.724,290.104 L754.724,367 L772.724,367 Z M819.524,368.008 C825.284,368.008 830.204,367.12 834.284,365.344 C838.364,363.568 841.508,361 843.716,357.64 L843.716,357.64 L843.716,367 L860.708,367 L860.708,321.928 C860.708,310.984 857.708,302.8 851.708,297.376 C845.708,291.952 837.044,289.24 825.716,289.24 C819.38,289.24 813.38,290.056 807.716,291.688 C802.052,293.32 797.204,295.672 793.172,298.744 L793.172,298.744 L800.228,311.848 C803.108,309.448 806.636,307.576 810.812,306.232 C814.988,304.888 819.236,304.216 823.556,304.216 C829.892,304.216 834.668,305.656 837.884,308.536 C841.1,311.416 842.708,315.544 842.708,320.92 L842.708,320.92 L842.708,322.072 L822.836,322.072 C811.796,322.072 803.708,324.16 798.572,328.336 C793.436,332.512 790.868,338.056 790.868,344.968 C790.868,349.384 792.044,353.344 794.396,356.848 C796.748,360.352 800.084,363.088 804.404,365.056 C808.724,367.024 813.764,368.008 819.524,368.008 Z M823.268,354.904 C818.66,354.904 815.06,353.944 812.468,352.024 C809.876,350.104 808.58,347.512 808.58,344.248 C808.58,337.432 813.764,334.024 824.132,334.024 L824.132,334.024 L842.708,334.024 L842.708,342.952 C841.268,346.792 838.796,349.744 835.292,351.808 C831.788,353.872 827.78,354.904 823.268,354.904 Z M901.748,367 L901.748,328.12 C901.748,320.632 903.668,314.896 907.508,310.912 C911.348,306.928 916.58,304.936 923.204,304.936 C929.06,304.936 933.572,306.64 936.74,310.048 C939.908,313.456 941.492,318.52 941.492,325.24 L941.492,325.24 L941.492,367 L959.492,367 L959.492,322.936 C959.492,311.8 956.564,303.4 950.708,297.736 C944.852,292.072 937.076,289.24 927.38,289.24 C921.716,289.24 916.628,290.152 912.116,291.976 C907.604,293.8 903.86,296.488 900.884,300.04 L900.884,300.04 L900.884,290.104 L883.748,290.104 L883.748,367 L901.748,367 Z" id="sandorian" />
        </g>
    </g>
</svg>
