<?xml version="1.0" encoding="UTF-8"?>
<svg width="400px" height="400px" viewBox="0 0 400 400" version="1.1" xmlns="http://www.w3.org/2000/svg" xmlns:xlink="http://www.w3.org/1999/xlink">
    <title>Artboard dark Copy 3</title>
    <g id="Artboard-dark-Copy-3" stroke="none" stroke-width="1" fill="none" fill-rule="evenodd">
        <circle id="Oval-Copy" stroke="#FFFFFF" stroke-width="3" fill="#131A35" cx="200" cy="200" r="198.5"></circle>
        <g id="php-svgrepo-com-copy" transform="translate(316, 136)">
            <circle id="Oval" fill="#FFFFFF" fill-rule="nonzero" cx="23" cy="23" r="23"></circle>
            <path d="M21.127429,13.1428571 L23.7411309,13.1428571 L23.002449,17.3383108 L25.3510468,17.3383108 C26.6390728,17.3677298 27.5985192,17.6752169 28.2300083,18.2609383 C28.8739435,18.8464934 29.0634369,19.9597629 28.7983329,21.5997495 L27.5292873,28.9142857 L24.8776245,28.9142857 L26.0897287,21.9291762 C26.2159021,21.1968583 26.1780967,20.677122 25.9761571,20.3696349 C25.7742176,20.0621478 25.3386006,19.9084043 24.6693062,19.9084043 L22.566832,19.8864646 L21.0137019,28.9142857 L18.4,28.9142857 L21.127429,13.1428571 Z" id="Path" fill="#000000" fill-rule="nonzero"></path>
            <path d="M7.97848793,17.0857143 L13.0785948,17.0857143 C14.5754816,17.1001946 15.660318,17.5990176 16.3327916,18.5813511 C17.0052651,19.563851 17.2272345,20.9055301 16.9988562,22.6067213 C16.9102247,23.3841661 16.7134222,24.1464649 16.4089177,24.8944497 C16.1170748,25.6422681 15.7112772,26.3166861 15.1910559,26.9180367 C14.5565673,27.6805019 13.8778411,28.1643452 13.154721,28.3698995 C12.4315853,28.5752875 11.6829387,28.677815 10.9091564,28.677815 L8.62551315,28.677815 L7.9023618,32.8571429 L5.25714286,32.8571429 L7.97848793,17.0857143 Z M9.06321496,26.1921884 L10.2012303,19.6152812 L10.5856438,19.6152812 C10.7253282,19.6152812 10.8710933,19.6077914 11.0233456,19.593311 C12.038418,19.5786642 12.8818549,19.6886816 13.5544223,19.9231966 C14.2394011,20.1577117 14.4677795,21.0450075 14.2394011,22.5847511 C13.9605325,24.4179298 13.4146753,25.4883104 12.6028612,25.7962258 C11.7910159,26.0896609 10.7759435,26.2288054 9.55800355,26.2141586 L9.29157772,26.2141586 C9.21545159,26.2141586 9.13934109,26.2066688 9.06321496,26.1921884 Z" id="Shape" fill="#000000"></path>
            <path d="M36.7357228,17.0857143 L31.6355943,17.0857143 L28.9142857,32.8571429 L31.5594684,32.8571429 L32.2827434,28.677815 L34.5663667,28.677815 C35.3401318,28.677815 36.0887301,28.5752875 36.8118488,28.3698995 C37.5351238,28.1643452 38.2136924,27.6805019 38.8481799,26.9180367 C39.3684002,26.3166861 39.774197,25.6422681 40.0660393,24.8944497 C40.3705433,24.1464649 40.5673454,23.3841661 40.6559767,22.6067213 C40.8843546,20.9055301 40.6625419,19.563851 39.9899134,18.5813511 C39.3174411,17.5990176 38.232763,17.1001946 36.7357228,17.0857143 Z M33.8584106,19.6152812 L32.7204287,26.1921884 C32.7965547,26.2066688 32.8726807,26.2141586 32.9488067,26.2141586 L33.2151695,26.2141586 C34.4331853,26.2288054 35.4481463,26.0896609 36.2600526,25.7962258 C37.0718026,25.4883104 37.6176588,24.4179298 37.8966832,22.5847511 C38.1250612,21.0450075 37.8966832,20.1577117 37.2115493,19.9231966 C36.5390771,19.6886816 35.6955949,19.5786642 34.6804775,19.593311 C34.5282255,19.6077914 34.3825388,19.6152812 34.2427922,19.6152812 L33.8584106,19.6152812 Z" id="Shape" fill="#000000"></path>
        </g>
        <g id="moneybird_logo-copy" transform="translate(39, 176)" fill="#FFFFFF" fill-rule="nonzero">
            <path d="M31.9741131,38.9452008 C18.9948986,37.9399506 14.7790772,30.7660108 13.6021859,25.8028565 C13.6021859,25.8028565 16.1399607,26.4950118 19.4551144,26.9524652 C19.4645257,26.9538993 20.351547,27.0781812 20.3694285,26.8401334 C20.4042507,26.381724 12.8968041,24.1546861 9.25931118,17.8712745 C6.42084327,12.9678714 6.24720357,8.26618746 6.24720357,8.26618746 C13.8638219,9.7480114 18.5445647,11.6045934 42.5073138,11.0027817 C49.9277052,11.0027817 53.238153,12.5496146 53.238153,21.7139786 C53.238153,28.113546 50.4608589,38.8209188 31.9741131,38.9452008 M65.1764706,21.371725 C65.1764706,20.1724036 63.9153476,19.4032892 62.3558842,18.9095073 L62.3869418,18.8774808 C62.3869418,18.8774808 62.2937692,18.8698327 62.1460107,18.8454543 C61.8951978,18.7713631 61.6382676,18.703486 61.378514,18.642301 C61.0274699,18.511805 60.6514859,18.3119977 60.3696155,18.0051168 C60.0435117,17.6504349 59.8468141,17.1991958 59.7282309,16.8134434 C58.7390963,10.1657901 54.9990195,4.08409794 42.5073138,4.08409794 L20.8108216,4.08409794 C20.0762644,4.05924154 18.0824666,3.94356367 13.3584316,3.42253526 C8.77697869,2.9172811 4.67785831,1.46222561 4.63974228,1.44884139 L0.618265669,0 L0.118992713,4.30493752 C0.0582894035,4.82787795 -1.24518476,16.970708 6.47684089,23.1331835 L6.47025293,23.2044067 C6.17332434,26.4644193 7.41091894,33.5762181 14.1193405,39.328563 C28.6608418,51.7983504 48.42471,43.970974 53.4804957,38.4858354 C56.6445968,35.052306 58.9141478,30.9973665 59.6985851,26.1307698 C59.8134038,25.7258974 60.0157481,25.2263793 60.3696155,24.8411051 C60.5230208,24.6742804 60.7046601,24.5404383 60.8942991,24.4304965 C61.4020424,24.2990444 61.9083738,24.1465598 62.3860006,23.9687409 L62.3869418,23.9687409 L62.3869418,23.9687409 C63.9322881,23.3946537 65.1764706,22.5629203 65.1764706,21.371725 M46.1598648,15.1547567 C44.476642,15.1547567 43.3435136,16.2073297 43.3435136,18.1480411 C43.3435136,19.9568222 44.476642,20.9768907 46.1598648,20.9768907 C47.8120302,20.9768907 49.010097,19.8913351 49.010097,18.1150584 C49.010097,16.1743472 48.0059042,15.1547567 46.1598648,15.1547567" id="Shape"></path>
            <path d="M88.582222,34.095431 C88.0737982,34.3715425 87.1349114,34.5690067 85.7655619,34.5690067 C84.3962124,34.5690067 83.4573256,34.3715425 82.909502,34.095431 L82.909502,15.2699456 C83.9661687,14.6779758 85.648201,14.3621176 87.5255554,14.3621176 L87.8394956,17.5985011 L88.1521784,17.5985011 C89.0516653,15.6644512 90.9688386,13.967612 94.4900829,13.967612 C96.7979,13.967612 99.1061362,14.6386521 100.162384,17.4010369 L100.475486,17.4010369 C101.297012,15.5460572 103.213347,13.967612 106.696029,13.967612 C109.629631,13.967612 113.072076,15.0331577 113.072076,21.5452483 L113.072076,34.095431 C112.563652,34.3715425 111.625185,34.5690067 110.255416,34.5690067 C108.886067,34.5690067 107.947599,34.3715425 107.399775,34.095431 L107.399775,22.5714702 C107.399775,20.5190263 106.734591,19.2166929 104.505154,19.2166929 C102.548581,19.2166929 101.413953,20.2424919 100.749188,21.4661781 C100.788169,21.8213599 100.827568,22.6501176 100.827568,23.4788754 L100.827568,34.095431 C100.319144,34.3715425 99.418819,34.5690067 98.0494695,34.5690067 C96.6809584,34.5690067 95.7806331,34.3715425 95.2328094,34.095431 L95.2328094,22.5714702 C95.2328094,20.5190263 94.5676248,19.2166929 92.3381881,19.2166929 C90.3430538,19.2166929 89.2474066,20.2424919 88.582222,21.4661781 L88.582222,34.095431 Z M127.15567,30.503781 C129.855389,30.503781 131.067978,28.214972 131.067978,24.3075485 C131.067978,20.8348 129.659648,18.6639621 127.15567,18.6639621 C124.534752,18.6639621 123.243782,20.8348 123.243782,24.3075485 C123.243782,28.214972 124.574151,30.503781 127.15567,30.503781 M136.897459,24.2682248 C136.897459,31.3722852 133.180473,35.2006385 127.15567,35.2006385 C120.857166,35.2006385 117.414721,31.5697496 117.414721,24.2682248 C117.414721,17.7958807 121.366009,13.9675274 127.15567,13.9675274 C133.063531,13.9675274 136.897459,17.5590927 136.897459,24.2682248 M146.951007,34.095431 C146.442583,34.3715425 145.503697,34.5690067 144.134347,34.5690067 C142.764998,34.5690067 141.826111,34.3715425 141.278287,34.095431 L141.278287,15.2699456 C142.334954,14.6779758 144.016986,14.3621176 145.894341,14.3621176 L146.208281,17.5985011 L146.520964,17.5985011 C147.459431,15.5460572 149.454985,13.967612 153.01521,13.967612 C155.988211,13.967612 159.509456,15.0331577 159.509456,21.5452483 L159.509456,34.095431 C159.000612,34.3715425 158.062145,34.5690067 156.692795,34.5690067 C155.323027,34.5690067 154.384559,34.3715425 153.836735,34.095431 L153.836735,22.5714702 C153.836735,20.5190263 153.132151,19.2166929 150.824334,19.2166929 C148.7898,19.2166929 147.655172,20.2424919 146.951007,21.4661781 L146.951007,34.095431 Z M176.605073,22.294978 C176.917757,20.2425343 176.174192,18.2298368 173.357532,18.2298368 C170.932354,18.2298368 169.445224,19.8087048 169.288882,22.294978 L176.605073,22.294978 Z M169.445224,26.4391895 C169.680365,29.2015743 171.636099,30.5432316 175.509426,30.5432316 C178.012984,30.5432316 180.20386,29.9910084 181.612609,29.359292 C181.729971,30.8590898 181.104185,32.7927167 180.20386,33.8189388 C178.913309,34.5690491 176.722016,35.2003426 174.022716,35.2003426 C167.176388,35.2003426 163.538201,31.2142716 163.538201,24.8209977 C163.538201,18.2298368 167.45009,13.9676543 173.592672,13.9676543 C179.303954,13.9676543 181.925712,17.5194731 181.925712,22.7292302 C181.925712,23.99224 181.69057,25.4129676 181.338488,26.4391895 L169.445224,26.4391895 Z M214.869948,30.1488528 C215.417771,30.3065705 216.318096,30.4249645 217.178603,30.4249645 C220.855351,30.4249645 222.381459,28.1754792 222.381459,24.3078022 C222.381459,20.7162368 220.97355,18.980074 218.469572,18.980074 C216.670179,18.980074 215.613512,19.8084089 214.869948,20.7953071 L214.869948,30.1488528 Z M214.831386,17.1250944 C215.535132,15.5069026 217.295963,13.9677812 220.268964,13.9677812 C224.298633,13.9677812 228.210522,16.493378 228.210522,23.7944798 C228.210522,31.2930459 224.102892,35.2004694 217.021423,35.2004694 C214.244162,35.2004694 211.349121,34.6084995 209.276027,33.7006716 L209.276027,6.1136104 C210.605976,5.36392293 212.444769,4.96941734 214.948327,4.96941734 L214.948327,11.3233675 C214.948327,13.0599532 214.791985,15.5069026 214.517864,17.1250944 L214.831386,17.1250944 Z M232.513683,15.0725659 C233.060668,14.7964543 234.000392,14.5989901 235.369742,14.5989901 C236.738254,14.5989901 237.677559,14.7964543 238.186403,15.0725659 L238.186403,34.0955154 C237.677559,34.3716271 236.738254,34.5690913 235.369742,34.5690913 C234.000392,34.5690913 233.060668,34.3716271 232.513683,34.0955154 L232.513683,15.0725659 Z M254.029865,13.9676543 C254.773429,13.9676543 255.399214,14.0860483 255.868657,14.3228362 C256.41648,15.3093116 256.690184,16.4146038 256.690184,17.9144015 C256.690184,19.0585946 256.533842,19.7689583 256.338101,20.3216045 C255.594955,19.8873523 254.85139,19.6509872 253.638382,19.6509872 C251.643247,19.6509872 250.156538,21.0319682 249.413811,23.0844121 L249.413811,34.0954732 C248.904969,34.3715847 247.965662,34.5690491 246.597151,34.5690491 C245.227802,34.5690491 244.288076,34.3715847 243.741091,34.0954732 L243.741091,15.2699879 C244.79692,14.6780181 246.439972,14.3621599 248.317745,14.3621599 L248.709227,17.993049 L249.022329,17.993049 C249.570153,15.822634 250.821722,13.9676543 254.029865,13.9676543 M201.716731,14.4412724 C200.347801,14.4412724 199.408495,14.6387366 198.90007,14.9148483 L198.90007,27.5441011 C198.156925,28.8066881 197.022297,29.8722337 194.909802,29.8722337 C192.562167,29.8722337 191.819021,28.5305765 191.819021,26.4392317 L191.819021,14.9148483 C191.271615,14.6387366 190.33231,14.4412724 188.962961,14.4412724 C187.59403,14.4412724 186.655143,14.6387366 186.146301,14.9148483 L186.146301,27.4650309 C186.146301,33.9771214 189.706525,35.0426671 192.757908,35.0426671 C196.357533,35.0426671 197.862265,33.9187703 198.723191,31.9453966 L198.982223,31.9453966 C198.991444,35.9268163 198.999827,35.7403458 198.96881,36.3805189 C198.841809,39.0063279 196.826137,40.206758 193.163641,40.206758 C190.761096,40.206758 188.65908,39.676945 187.307754,39.0710216 C187.195422,40.5095083 187.79564,42.3649108 188.65908,43.3496949 C189.898075,44.0689381 191.999672,44.6752843 194.589575,44.6752843 C200.330615,44.6752843 204.558121,41.518394 204.558121,36.6261864 C204.558121,35.3877009 204.563151,27.4214788 204.565665,23.036674 L204.56776,23.033714 L204.56776,20.1630834 L204.56776,20.1525124 L204.56776,14.9148483 C204.020356,14.6387366 203.086081,14.4412724 201.716731,14.4412724 M271.614669,20.7953494 C270.871103,19.8084512 269.814436,18.9796935 268.015044,18.9796935 C265.511067,18.9796935 264.103155,20.7162792 264.103155,24.3078446 C264.103155,28.1755214 265.629266,30.4250067 269.306012,30.4250067 C270.166519,30.4250067 271.066844,30.3066127 271.614669,30.1488951 L271.614669,20.7953494 Z M271.96675,17.1251366 C271.692629,15.5069449 271.536287,13.0599955 271.536287,11.3234098 L271.536287,4.96903679 C274.039846,4.96903679 275.637729,5.3601889 277,6.10987636 L277,33.6666384 C274.894583,34.5744663 272.240452,35.2005116 269.463192,35.2005116 C262.381723,35.2005116 258.274093,31.2930881 258.274093,23.7945222 C258.274093,16.4934203 262.185981,13.9678234 266.21565,13.9678234 C269.188652,13.9678234 270.949484,15.5069449 271.653229,17.1251366 L271.96675,17.1251366 Z" id="Shape"></path>
        </g>
        <g id="logo-copy" transform="translate(216.8169, 232)" fill="#FFFFFF" fill-rule="nonzero">
            <g id="sandorian" transform="translate(1.1047, 5.9252)">
                <path d="M6.22035092,21.4409441 C4.99096003,21.4409441 3.81202921,21.2803893 2.68355847,20.9592798 C1.55508773,20.6381702 0.660568239,20.2482514 0,19.7895235 L1.32113648,17.1747742 C1.98170472,17.5968039 2.77071678,17.9454372 3.68817267,18.2206739 C4.60562856,18.4959107 5.52308445,18.6335291 6.44054033,18.6335291 C7.52313828,18.6335291 8.30756307,18.4867361 8.79381469,18.1931503 C9.28006631,17.8995644 9.52319212,17.5050583 9.52319212,17.0096322 C9.52319212,16.6059516 9.35805006,16.2986038 9.02776594,16.087589 C8.69748182,15.8765741 8.26627755,15.7160194 7.73415314,15.6059247 C7.20202872,15.4958299 6.61026967,15.3949098 5.95887599,15.3031642 C5.30748231,15.2114186 4.65608863,15.0875621 4.00469495,14.9315946 C3.35330127,14.7756271 2.76154222,14.5462631 2.22941781,14.2435027 C1.69729339,13.9407422 1.26608913,13.5324743 0.935805006,13.018699 C0.605520886,12.5049238 0.440378826,11.8260064 0.440378826,10.981947 C0.440378826,10.046142 0.706441034,9.23419351 1.23856545,8.5461016 C1.77068986,7.85800968 2.51841641,7.32588526 3.48174509,6.94972835 C4.44507378,6.57357144 5.58730636,6.38549298 6.90844284,6.38549298 C7.89929519,6.38549298 8.89932211,6.49558769 9.90852359,6.7157771 C10.9177251,6.93596651 11.7526099,7.24790151 12.4131782,7.65158211 L11.0920417,10.2663314 C10.3947752,9.84430168 9.69292146,9.55530307 8.98648042,9.39933557 C8.28003939,9.24336807 7.57818563,9.16538432 6.88091916,9.16538432 C5.83501945,9.16538432 5.05976922,9.32135182 4.55516848,9.63328682 C4.05056775,9.94522182 3.79826738,10.3397279 3.79826738,10.8168049 C3.79826738,11.2571837 3.96340944,11.5874679 4.29369356,11.8076573 C4.62397768,12.0278467 5.05518194,12.2021633 5.58730636,12.3306071 C6.11943077,12.459051 6.71118982,12.5645584 7.3625835,12.6471294 C8.01397718,12.7297004 8.66078358,12.853557 9.3030027,13.018699 C9.94522182,13.1838411 10.5369809,13.4086178 11.0782798,13.6930291 C11.6195788,13.9774405 12.0553704,14.3765338 12.3856545,14.8903091 C12.7159386,15.4040844 12.8810807,16.0738272 12.8810807,16.8995375 C12.8810807,17.8169933 12.6104312,18.61518 12.0691322,19.2940973 C11.5278332,19.9730147 10.7617576,20.5005518 9.77090521,20.8767087 C8.78005285,21.2528656 7.59653475,21.4409441 6.22035092,21.4409441 Z" id="Path"></path>
                <path d="M25.8646106,21.2482784 L25.8646106,18.2757213 L25.6719448,17.6426767 L25.6719448,12.4407018 C25.6719448,11.4315004 25.3691844,10.6470756 24.7636635,10.0874275 C24.1581426,9.5277794 23.2406867,9.24795535 22.0112958,9.24795535 C21.1855855,9.24795535 20.3736371,9.37639917 19.5754505,9.63328682 C18.7772638,9.89017447 18.1029338,10.2479823 17.5524602,10.7067102 L16.2038001,8.20205564 C16.9928121,7.59653475 17.9332044,7.14239409 19.0249769,6.83963364 C20.1167494,6.5368732 21.2498075,6.38549298 22.424151,6.38549298 C24.5526487,6.38549298 26.199482,6.894681 27.3646509,7.91305703 C28.5298199,8.93143307 29.1124044,10.5048699 29.1124044,12.6333676 L29.1124044,21.2482784 L25.8646106,21.2482784 Z M21.2406329,21.4409441 C20.1396858,21.4409441 19.1763572,21.2528656 18.3506469,20.8767087 C17.5249366,20.5005518 16.8873047,19.977602 16.4377513,19.3078592 C15.9881979,18.6381164 15.7634212,17.8812153 15.7634212,17.0371558 C15.7634212,16.2114455 15.9606743,15.4683063 16.3551803,14.807738 C16.7496863,14.1471698 17.3964927,13.6242199 18.2955995,13.2388885 C19.1947063,12.853557 20.3873989,12.6608913 21.8736775,12.6608913 L26.1398473,12.6608913 L26.1398473,14.9453564 L22.1213906,14.9453564 C20.947047,14.9453564 20.158035,15.1334349 19.7543544,15.5095918 C19.3506738,15.8857487 19.1488335,16.3490639 19.1488335,16.8995375 C19.1488335,17.5234075 19.3965466,18.0188336 19.8919727,18.385816 C20.3873989,18.7527983 21.0754908,18.9362895 21.9562485,18.9362895 C22.8003079,18.9362895 23.557209,18.7436238 24.2269518,18.3582923 C24.8966946,17.9729608 25.378359,17.4041382 25.6719448,16.6518244 L26.249942,18.7161001 C25.9196579,19.5785086 25.3278989,20.2482514 24.4746649,20.7253285 C23.6214309,21.2024056 22.5434203,21.4409441 21.2406329,21.4409441 Z" id="Shape"></path>
                <path d="M41.4735934,6.38549298 C42.6479369,6.38549298 43.6984239,6.61485695 44.6250544,7.0735849 C45.5516848,7.53231284 46.2810623,8.23416659 46.8131867,9.17914616 C47.3453111,10.1241257 47.6113733,11.3397548 47.6113733,12.8260333 L47.6113733,21.2482784 L44.1709137,21.2482784 L44.1709137,13.2664121 C44.1709137,11.9636248 43.863566,10.9911215 43.2488706,10.3489024 C42.6341751,9.70668329 41.7763539,9.38557373 40.6754068,9.38557373 C39.8680456,9.38557373 39.15243,9.55071579 38.52856,9.88099991 C37.90469,10.211284 37.4230257,10.7021229 37.083567,11.3535166 C36.7441083,12.0049103 36.574379,12.8260333 36.574379,13.8168857 L36.574379,21.2482784 L33.1339194,21.2482784 L33.1339194,6.55063504 L36.4092369,6.55063504 L36.4092369,10.5140445 L35.8312397,9.3030027 C36.345015,8.3671977 37.0927415,7.64699483 38.0744193,7.14239409 C39.0560971,6.63779335 40.1891552,6.38549298 41.4735934,6.38549298 Z" id="Path"></path>
                <path d="M58.2355125,21.4409441 C56.8226304,21.4409441 55.551954,21.1244218 54.4234833,20.4913773 C53.2950125,19.8583327 52.4096676,18.9821623 51.7674485,17.8628661 C51.1252294,16.74357 50.8041198,15.4224335 50.8041198,13.8994567 C50.8041198,12.3764799 51.1252294,11.0553434 51.7674485,9.93604727 C52.4096676,8.81675108 53.2950125,7.94516799 54.4234833,7.32129799 C55.551954,6.69742798 56.8226304,6.38549298 58.2355125,6.38549298 C59.4649034,6.38549298 60.5658504,6.65614247 61.5383537,7.19744144 C62.5108569,7.73874041 63.2815199,8.55986343 63.8503425,9.6608105 C64.4191652,10.7617576 64.7035765,12.1746396 64.7035765,13.8994567 C64.7035765,15.6059247 64.4283397,17.0142194 63.8778662,18.1243411 C63.3273927,19.2344627 62.5659043,20.0647603 61.593401,20.6152338 C60.6208978,21.1657073 59.5016016,21.4409441 58.2355125,21.4409441 Z M58.6483676,18.4959107 C59.4740779,18.4959107 60.2126299,18.3124195 60.8640236,17.9454372 C61.5154173,17.5784548 62.0383671,17.0463304 62.4328732,16.3490639 C62.8273792,15.6517974 63.0246322,14.8352617 63.0246322,13.8994567 C63.0246322,12.9453026 62.8273792,12.1241796 62.4328732,11.4360876 C62.0383671,10.7479957 61.5154173,10.2204586 60.8640236,9.85347624 C60.2126299,9.48649388 59.4740779,9.3030027 58.6483676,9.3030027 C57.8226573,9.3030027 57.0841053,9.48649388 56.4327117,9.85347624 C55.781318,10.2204586 55.2583681,10.7479957 54.8638621,11.4360876 C54.4693561,12.1241796 54.272103,12.9453026 54.272103,13.8994567 C54.272103,14.8352617 54.4693561,15.6517974 54.8638621,16.3490639 C55.2583681,17.0463304 55.781318,17.5784548 56.4327117,17.9454372 C57.0841053,18.3124195 57.8226573,18.4959107 58.6483676,18.4959107 Z M63.1072032,21.2482784 L63.1072032,17.7802951 L63.2448216,13.871933 L62.9695849,9.96357094 L62.9695849,0.825710299 L66.3825208,0.825710299 L66.3825208,21.2482784 L63.1072032,21.2482784 Z" id="Shape"></path>
                <path d="M77.5296098,21.4409441 C76.0249822,21.4409441 74.6854966,21.1152473 73.511153,20.4638536 C72.3368095,19.8124599 71.410179,18.9179404 70.7312617,17.7802951 C70.0523443,16.6426498 69.7128856,15.349037 69.7128856,13.8994567 C69.7128856,12.4315273 70.0523443,11.1333272 70.7312617,10.0048565 C71.410179,8.87638572 72.3368095,7.99104078 73.511153,7.34882166 C74.6854966,6.70660254 76.0249822,6.38549298 77.5296098,6.38549298 C79.0525866,6.38549298 80.405834,6.70660254 81.5893521,7.34882166 C82.7728702,7.99104078 83.6995007,8.87179844 84.3692435,9.99109462 C85.0389863,11.1103908 85.3738576,12.4131782 85.3738576,13.8994567 C85.3738576,15.349037 85.0389863,16.6426498 84.3692435,17.7802951 C83.6995007,18.9179404 82.7728702,19.8124599 81.5893521,20.4638536 C80.405834,21.1152473 79.0525866,21.4409441 77.5296098,21.4409441 Z M77.5296098,18.4959107 C78.3736692,18.4959107 79.1259831,18.3124195 79.7865513,17.9454372 C80.4471195,17.5784548 80.9654821,17.0463304 81.341639,16.3490639 C81.7177959,15.6517974 81.9058744,14.8352617 81.9058744,13.8994567 C81.9058744,12.9453026 81.7177959,12.1241796 81.341639,11.4360876 C80.9654821,10.7479957 80.4471195,10.2204586 79.7865513,9.85347624 C79.1259831,9.48649388 78.3828438,9.3030027 77.5571335,9.3030027 C76.7130741,9.3030027 75.9653475,9.48649388 75.3139538,9.85347624 C74.6625602,10.2204586 74.1441976,10.7479957 73.7588661,11.4360876 C73.3735346,12.1241796 73.1808689,12.9453026 73.1808689,13.8994567 C73.1808689,14.8352617 73.3735346,15.6517974 73.7588661,16.3490639 C74.1441976,17.0463304 74.6625602,17.5784548 75.3139538,17.9454372 C75.9653475,18.3124195 76.7038995,18.4959107 77.5296098,18.4959107 Z" id="Shape"></path>
                <path d="M88.6766988,21.2482784 L88.6766988,6.55063504 L91.9520164,6.55063504 L91.9520164,10.5966155 L91.5666849,9.41309741 C92.0070637,8.42224505 92.6997429,7.66993122 93.6447225,7.15615593 C94.589702,6.64238063 95.7686329,6.38549298 97.1815149,6.38549298 L97.1815149,9.6608105 C97.034722,9.62411226 96.8971036,9.60117587 96.7686598,9.59200131 C96.640216,9.58282675 96.5117721,9.57823947 96.3833283,9.57823947 C95.0805409,9.57823947 94.0438158,9.95898366 93.2731528,10.7204721 C92.5024899,11.4819604 92.1171584,12.6150185 92.1171584,14.1196461 L92.1171584,21.2482784 L88.6766988,21.2482784 Z" id="Path"></path>
                <path d="M100.099025,21.2482784 L100.099025,6.55063504 L103.539484,6.55063504 L103.539484,21.2482784 L100.099025,21.2482784 Z M101.833016,4.1285515 C101.190797,4.1285515 100.66326,3.9267112 100.250405,3.52303061 C99.8375497,3.11935002 99.6311221,2.6330984 99.6311221,2.06427575 C99.6311221,1.47710398 99.8375497,0.98626508 100.250405,0.591759048 C100.66326,0.197253016 101.190797,1.77635684e-15 101.833016,1.77635684e-15 C102.475235,1.77635684e-15 103.002773,0.188078457 103.415628,0.564235371 C103.828483,0.940392285 104.03491,1.41288207 104.03491,1.98170472 C104.03491,2.5872256 103.83307,3.09641362 103.42939,3.50926877 C103.025709,3.92212392 102.493585,4.1285515 101.833016,4.1285515 Z" id="Shape"></path>
                <path d="M117.108657,21.2482784 L117.108657,18.2757213 L116.915991,17.6426767 L116.915991,12.4407018 C116.915991,11.4315004 116.613231,10.6470756 116.00771,10.0874275 C115.402189,9.5277794 114.484733,9.24795535 113.255342,9.24795535 C112.429632,9.24795535 111.617683,9.37639917 110.819497,9.63328682 C110.02131,9.89017447 109.34698,10.2479823 108.796506,10.7067102 L107.447846,8.20205564 C108.236858,7.59653475 109.177251,7.14239409 110.269023,6.83963364 C111.360796,6.5368732 112.493854,6.38549298 113.668197,6.38549298 C115.796695,6.38549298 117.443528,6.894681 118.608697,7.91305703 C119.773866,8.93143307 120.356451,10.5048699 120.356451,12.6333676 L120.356451,21.2482784 L117.108657,21.2482784 Z M112.484679,21.4409441 C111.383732,21.4409441 110.420403,21.2528656 109.594693,20.8767087 C108.768983,20.5005518 108.131351,19.977602 107.681798,19.3078592 C107.232244,18.6381164 107.007467,17.8812153 107.007467,17.0371558 C107.007467,16.2114455 107.204721,15.4683063 107.599227,14.807738 C107.993733,14.1471698 108.640539,13.6242199 109.539646,13.2388885 C110.438753,12.853557 111.631445,12.6608913 113.117724,12.6608913 L117.383894,12.6608913 L117.383894,14.9453564 L113.365437,14.9453564 C112.191093,14.9453564 111.402081,15.1334349 110.998401,15.5095918 C110.59472,15.8857487 110.39288,16.3490639 110.39288,16.8995375 C110.39288,17.5234075 110.640593,18.0188336 111.136019,18.385816 C111.631445,18.7527983 112.319537,18.9362895 113.200295,18.9362895 C114.044354,18.9362895 114.801255,18.7436238 115.470998,18.3582923 C116.140741,17.9729608 116.622405,17.4041382 116.915991,16.6518244 L117.493988,18.7161001 C117.163704,19.5785086 116.571945,20.2482514 115.718711,20.7253285 C114.865477,21.2024056 113.787466,21.4409441 112.484679,21.4409441 Z" id="Shape"></path>
                <path d="M133.099913,6.38549298 C134.274256,6.38549298 135.324743,6.61485695 136.251374,7.0735849 C137.178004,7.53231284 137.907382,8.23416659 138.439506,9.17914616 C138.971631,10.1241257 139.237693,11.3397548 139.237693,12.8260333 L139.237693,21.2482784 L135.797233,21.2482784 L135.797233,13.2664121 C135.797233,11.9636248 135.489886,10.9911215 134.87519,10.3489024 C134.260495,9.70668329 133.402673,9.38557373 132.301726,9.38557373 C131.494365,9.38557373 130.77875,9.55071579 130.15488,9.88099991 C129.53101,10.211284 129.049345,10.7021229 128.709887,11.3535166 C128.370428,12.0049103 128.200698,12.8260333 128.200698,13.8168857 L128.200698,21.2482784 L124.760239,21.2482784 L124.760239,6.55063504 L128.035556,6.55063504 L128.035556,10.5140445 L127.457559,9.3030027 C127.971335,8.3671977 128.719061,7.64699483 129.700739,7.14239409 C130.682417,6.63779335 131.815475,6.38549298 133.099913,6.38549298 Z" id="Path"></path>
            </g>
        </g>
        <text id="by-copy" font-family="Inter-SemiBold, Inter" font-size="17" font-weight="500" letter-spacing="0.607142857" fill="#FFFFFF">
            <tspan x="186.299107" y="259">by</tspan>
        </text>
    </g>
</svg>