<?xml version="1.0" encoding="UTF-8"?>
<svg width="517px" height="148px" viewBox="0 0 517 148" version="1.1" xmlns="http://www.w3.org/2000/svg" xmlns:xlink="http://www.w3.org/1999/xlink">
    <title>Artboard multi Copy 6</title>
    <g id="Artboard-multi-Copy-6" stroke="none" stroke-width="1" fill="none" fill-rule="evenodd">
        <path d="M7.6916556,21 L436,21 C445.88165,21 455.064422,23.5950056 462.916274,28.1529742 C470.768126,32.7109428 477.289057,39.2318744 481.847026,47.0837262 C486.404994,54.9355781 489,64.1183502 489,74 L489,74 C489,83.8816498 486.404994,93.0644219 481.847026,100.916274 C477.289057,108.768126 470.768126,115.289057 462.916274,119.847026 C455.064422,124.404994 445.88165,127 436,127 L7.6916556,127 C5.01709938,127 4.04724067,126.721523 3.06946289,126.198602 C2.09168511,125.675681 1.32431939,124.908315 0.801398111,123.930537 C0.278476833,122.952759 6.01853049e-17,121.982901 -1.03584031e-16,119.308344 L2.07168062e-16,28.6916556 C-1.2037061e-16,26.0170994 0.278476833,25.0472407 0.801398111,24.0694629 C1.32431939,23.0916851 2.09168511,22.3243194 3.06946289,21.8013981 C4.04724067,21.2784768 5.01709938,21 7.6916556,21 Z" id="Rectangle" fill="#0173E6"></path>
        <g id="moneybird_logo-copy" transform="translate(29, 47)" fill="#FFFFFF" fill-rule="nonzero">
            <path d="M37.5147536,45.7182792 C22.2864334,44.5382029 17.3400726,36.1166213 15.9592434,30.2903099 C15.9592434,30.2903099 18.936777,31.10284 22.8263978,31.6398505 C22.8374399,31.6415339 23.8781689,31.7874302 23.899149,31.5079827 C23.9400053,30.9698499 15.1316293,28.355501 10.8638128,20.9793223 C7.53348037,15.2231534 7.32975148,9.70378528 7.32975148,9.70378528 C16.266217,11.4433177 21.7580633,13.6227835 49.8732021,12.9163089 C58.5794375,12.9163089 62.4635369,14.7321563 62.4635369,25.4903228 C62.4635369,33.0028583 59.2049789,45.5723829 37.5147536,45.7182792 M76.4705882,25.0885468 C76.4705882,23.6806478 74.9909313,22.7777743 73.161236,22.1981173 L73.1976754,22.160521 C73.1976754,22.160521 73.0883574,22.1515427 72.9149946,22.1229246 C72.6207195,22.035948 72.3192671,21.9562661 72.014502,21.8844404 C71.6026272,21.7312493 71.1614907,21.496693 70.8307763,21.1364414 C70.4481635,20.7200758 70.2173812,20.1903603 70.0782493,19.7375205 C68.9177123,11.9337536 64.5295355,4.79437584 49.8732021,4.79437584 L24.417029,4.79437584 C23.5551839,4.7651966 21.2158905,4.62940083 15.67325,4.01775878 C10.2978992,3.42463433 5.48846191,1.71652572 5.44374094,1.70081381 L0.725401958,0 L0.139612389,5.0536223 C0.0683900943,5.6675089 -1.46095685,19.9221355 7.59918154,27.1563458 L7.59145199,27.2399557 C7.24307008,31.0669271 8.6951215,39.4155604 16.5660132,46.1683131 C33.6273415,60.8067592 56.8159955,51.6180999 62.7478741,45.1790242 C66.4602671,41.1483593 69.1230976,36.3882128 70.0434662,30.6752516 C70.1781814,30.1999665 70.4155889,29.6135757 70.8307763,29.1612973 C71.0107645,28.9654596 71.2238792,28.8083406 71.4463798,28.6792785 C72.0421075,28.5249652 72.6361786,28.3459616 73.1965711,28.1372176 L73.1976754,28.1372176 L73.1976754,28.1372176 C75.0108073,27.4632891 76.4705882,26.4869065 76.4705882,25.0885468 M54.1586861,17.7903665 C52.1837858,17.7903665 50.8543029,19.0259957 50.8543029,21.3042221 C50.8543029,23.4275739 52.1837858,24.6250457 54.1586861,24.6250457 C56.0971473,24.6250457 57.5028214,23.3506977 57.5028214,21.2655034 C57.5028214,18.9872771 56.3246169,17.7903665 54.1586861,17.7903665" id="Shape"></path>
            <path d="M103.93221,40.0250711 C103.335684,40.3492021 102.234102,40.5810079 100.627464,40.5810079 C99.0208268,40.5810079 97.9192448,40.3492021 97.2764916,40.0250711 L97.2764916,17.9255883 C98.516263,17.2306672 100.489767,16.8598772 102.692439,16.8598772 L103.06078,20.65911 L103.427646,20.65911 C104.483001,18.3887035 106.732392,16.3967619 110.863816,16.3967619 C113.571543,16.3967619 116.279763,17.1845046 117.519042,20.4273042 L117.8864,20.4273042 C118.850284,18.2497193 121.098692,16.3967619 125.184872,16.3967619 C128.626824,16.3967619 132.665793,17.6476199 132.665793,25.2922481 L132.665793,40.0250711 C132.069267,40.3492021 130.968177,40.5810079 129.361048,40.5810079 C127.75441,40.5810079 126.65332,40.3492021 126.010567,40.0250711 L126.010567,26.4969433 C126.010567,24.0875526 125.230116,22.5587264 122.614351,22.5587264 C120.318733,22.5587264 118.98749,23.7629252 118.207531,25.1994265 C118.253266,25.616379 118.299494,26.5892685 118.299494,27.5621581 L118.299494,40.0250711 C117.702967,40.3492021 116.646629,40.5810079 115.039991,40.5810079 C113.434337,40.5810079 112.377999,40.3492021 111.735246,40.0250711 L111.735246,26.4969433 C111.735246,24.0875526 110.954794,22.5587264 108.339029,22.5587264 C105.998168,22.5587264 104.712661,23.7629252 103.93221,25.1994265 L103.93221,40.0250711 Z M149.189866,35.8087864 C152.357406,35.8087864 153.780118,33.1219237 153.780118,28.5349483 C153.780118,24.4582435 152.127746,21.9098686 149.189866,21.9098686 C146.114781,21.9098686 144.600106,24.4582435 144.600106,28.5349483 C144.600106,33.1219237 146.161008,35.8087864 149.189866,35.8087864 M160.619762,28.4887856 C160.619762,36.8283348 156.258678,41.3224886 149.189866,41.3224886 C141.799924,41.3224886 137.760954,37.0601408 137.760954,28.4887856 C137.760954,20.8908164 142.396942,16.3966627 149.189866,16.3966627 C156.121472,16.3966627 160.619762,20.612848 160.619762,28.4887856 M172.415442,40.0250711 C171.818916,40.3492021 170.717334,40.5810079 169.110696,40.5810079 C167.504059,40.5810079 166.402477,40.3492021 165.759723,40.0250711 L165.759723,17.9255883 C166.999495,17.2306672 168.972998,16.8598772 171.17567,16.8598772 L171.544012,20.65911 L171.910878,20.65911 C173.011968,18.2497193 175.353321,16.3967619 179.530481,16.3967619 C183.018659,16.3967619 187.150083,17.6476199 187.150083,25.2922481 L187.150083,40.0250711 C186.553065,40.3492021 185.451975,40.5810079 183.845338,40.5810079 C182.238208,40.5810079 181.137118,40.3492021 180.494365,40.0250711 L180.494365,26.4969433 C180.494365,24.0875526 179.667686,22.5587264 176.959959,22.5587264 C174.57287,22.5587264 173.241628,23.7629252 172.415442,25.1994265 L172.415442,40.0250711 Z M207.208118,26.1723655 C207.574986,23.762975 206.702571,21.4002432 203.397826,21.4002432 C200.552401,21.4002432 198.807574,23.253697 198.62414,26.1723655 L207.208118,26.1723655 Z M198.807574,31.0373094 C199.083461,34.2801089 201.378094,35.855098 205.922611,35.855098 C208.86,35.855098 211.430522,35.2068359 213.083386,34.4652558 C213.221085,36.225888 212.48686,38.4957979 211.430522,39.7004933 C209.916338,40.5810576 207.345326,41.3221413 204.178277,41.3221413 C196.145581,41.3221413 191.876951,36.6428405 191.876951,29.137693 C191.876951,21.4002432 196.466712,16.3968116 203.673713,16.3968116 C210.374676,16.3968116 213.450745,20.566338 213.450745,26.6821398 C213.450745,28.1648035 213.174856,29.8326142 212.761764,31.0373094 L198.807574,31.0373094 Z M252.103729,35.3921315 C252.746482,35.5772784 253.80282,35.7162626 254.81244,35.7162626 C259.126314,35.7162626 260.916875,33.0755626 260.916875,28.535246 C260.916875,24.3190606 259.264995,22.2809564 256.327116,22.2809564 C254.215914,22.2809564 252.976142,23.2533496 252.103729,24.4118822 L252.103729,35.3921315 Z M252.058485,20.1033717 C252.88418,18.2037553 254.950137,16.3969605 258.438316,16.3969605 C263.166267,16.3969605 267.756028,19.3617916 267.756028,27.9326502 C267.756028,36.7353148 262.936606,41.3222902 254.628023,41.3222902 C251.369505,41.3222902 247.972796,40.627369 245.540465,39.561658 L245.540465,7.17684699 C247.100874,6.2967791 249.258303,5.83366383 252.195691,5.83366383 L252.195691,13.2926488 C252.195691,15.3312494 252.012257,18.2037553 251.690635,20.1033717 L252.058485,20.1033717 Z M272.804862,17.6938817 C273.446632,17.3697507 274.549197,17.1379449 276.155834,17.1379449 C277.761489,17.1379449 278.863562,17.3697507 279.460581,17.6938817 L279.460581,40.0251703 C278.863562,40.3493014 277.761489,40.5811072 276.155834,40.5811072 C274.549197,40.5811072 273.446632,40.3493014 272.804862,40.0251703 L272.804862,17.6938817 Z M298.04948,16.3968116 C298.921893,16.3968116 299.656118,16.5357958 300.206909,16.8137642 C300.849661,17.9718005 301.170794,19.2693174 301.170794,21.0299496 C301.170794,22.3731328 300.98736,23.2070381 300.757699,23.8557966 C299.885778,23.3460223 299.013363,23.0685502 297.59016,23.0685502 C295.249297,23.0685502 293.504963,24.6897018 292.633533,27.0990925 L292.633533,40.0251207 C292.036516,40.3492517 290.934441,40.5810576 289.328788,40.5810576 C287.72215,40.5810576 286.619584,40.3492517 285.977814,40.0251207 L285.977814,17.9256379 C287.216603,17.2307169 289.144371,16.8599268 291.347535,16.8599268 L291.806855,21.1222749 L292.174212,21.1222749 C292.816967,18.5743964 294.285414,16.3968116 298.04948,16.3968116 M236.671255,16.9527981 C235.065109,16.9527981 233.963036,17.1846039 233.366508,17.5087349 L233.366508,32.3343796 C232.494587,33.8165469 231.163345,35.0674048 228.684786,35.0674048 C225.93034,35.0674048 225.058418,33.4924159 225.058418,31.037359 L225.058418,17.5087349 C224.416155,17.1846039 223.314082,16.9527981 221.707445,16.9527981 C220.101299,16.9527981 218.999717,17.1846039 218.402699,17.5087349 L218.402699,32.241558 C218.402699,39.886186 222.579858,41.137044 226.16,41.137044 C230.383387,41.137044 232.148867,39.8176868 233.158978,37.5011177 L233.462897,37.5011177 C233.473716,42.1749583 233.483552,41.9560581 233.44716,42.7075657 C233.298151,45.7900371 230.933193,47.1992377 226.636041,47.1992377 C223.817171,47.1992377 221.350906,46.5772832 219.765415,45.8659819 C219.633618,47.5546402 220.337845,49.7327213 221.350906,50.8887722 C222.804601,51.7331012 225.270374,52.4448989 228.309068,52.4448989 C235.044946,52.4448989 240.005015,48.7389842 240.005015,42.9959579 C240.005015,41.5420837 240.010917,32.1904316 240.013867,27.0430521 L240.016325,27.0395774 L240.016325,23.6697066 L240.016325,23.6572972 L240.016325,17.5087349 C239.374064,17.1846039 238.277893,16.9527981 236.671255,16.9527981 M318.68147,24.411932 C317.809056,23.2533992 316.569284,22.2805097 314.458084,22.2805097 C311.520204,22.2805097 309.868323,24.3191104 309.868323,28.5352958 C309.868323,33.0756121 311.658886,35.7163122 315.972758,35.7163122 C316.982378,35.7163122 318.038716,35.577328 318.68147,35.3921813 L318.68147,24.411932 Z M319.094563,20.1034212 C318.772941,18.2038049 318.589507,15.331299 318.589507,13.2926984 L318.589507,5.8332171 C321.526895,5.8332171 323.401667,6.29239567 325,7.17246356 L325,39.5217059 C322.529746,40.5874169 319.415693,41.3223398 316.157174,41.3223398 C307.848591,41.3223398 303.02917,36.7353643 303.02917,27.9326999 C303.02917,19.3618412 307.618931,16.3970101 312.346882,16.3970101 C315.835061,16.3970101 317.901019,18.2038049 318.726712,20.1034212 L319.094563,20.1034212 Z" id="Shape"></path>
        </g>
        <ellipse id="Oval" fill="#0173E6" cx="442.5" cy="74" rx="73.5" ry="74"></ellipse>
        <g id="php-svgrepo-com" transform="translate(381, 12)">
            <circle id="Oval" fill="#FFFFFF" fill-rule="nonzero" cx="62" cy="62" r="62"></circle>
            <path d="M55.4164784,35.5737705 L62.7436461,35.5737705 L60.6728489,46.9296045 L67.2568324,46.9296045 C70.8676432,47.009233 73.5573243,47.8415083 75.3276203,49.4268803 C77.1328076,51.0118024 77.6640273,54.0250888 76.9208431,58.4640404 L73.3632416,78.2622951 L65.9296556,78.2622951 L69.3276295,59.3556996 C69.6813398,57.3735348 69.5753576,55.9667646 69.0092467,55.1344893 C68.4431357,54.302214 67.2219411,53.8860764 65.3456629,53.8860764 L59.4516543,53.8266924 L55.0976594,78.2622951 L47.7704918,78.2622951 L55.4164784,35.5737705 Z" id="Path" fill="#0173E6" fill-rule="nonzero"></path>
            <path d="M20.9297347,45.7377049 L35.3915489,45.7377049 C39.6361066,45.7768989 42.7122584,47.1270631 44.619118,49.785945 C46.5259775,52.4452774 47.1553919,56.0768001 46.5078043,60.6814141 C46.2564818,62.785724 45.6984306,64.849038 44.8349805,66.8736085 C44.0074336,68.8977286 42.8567578,70.7231758 41.3816233,72.3508512 C39.5824734,74.4146157 37.6578839,75.7242344 35.6074115,76.2806084 C33.5568948,76.8365318 31.4340397,77.114043 29.2399101,77.114043 L22.7644332,77.114043 L20.7138722,88.4262295 L13.2131148,88.4262295 L20.9297347,45.7377049 Z M24.0055763,70.3861979 L27.2325216,52.5844835 L28.3225609,52.5844835 C28.7186487,52.5844835 29.1319789,52.5642107 29.5637039,52.5250168 C32.4420335,52.4853723 34.8336751,52.7831563 36.7408006,53.4179182 C38.6831201,54.05268 39.3307076,56.4543235 38.6831201,60.6219474 C37.8923629,65.5838121 36.3445355,68.4810112 34.0425633,69.3144459 C31.7405025,70.1086866 28.8621729,70.485309 25.4085941,70.4456646 L24.6531195,70.4456646 C24.437257,70.4456646 24.2214388,70.4253918 24.0055763,70.3861979 Z" id="Shape" fill="#0173E6"></path>
            <path d="M99.4242936,45.7377049 L84.9624183,45.7377049 L77.2459016,88.4262295 L84.7465562,88.4262295 L86.7974679,77.114043 L93.2728882,77.114043 C95.4669692,77.114043 97.5896873,76.8365318 99.6401558,76.2806084 C101.691067,75.7242344 103.61521,74.4146157 105.414357,72.3508512 C106.889488,70.7231758 108.040162,68.8977286 108.867707,66.8736085 C109.731156,64.849038 110.289206,62.785724 110.540528,60.6814141 C111.188114,56.0768001 110.559144,52.4452774 108.651845,49.785945 C106.744989,47.1270631 103.669286,45.7768989 99.4242936,45.7377049 Z M91.2654148,52.5844835 L88.0385643,70.3861979 C88.2544264,70.4253918 88.4702885,70.4456646 88.6861506,70.4456646 L89.4414464,70.4456646 C92.8952403,70.485309 95.7732541,70.1086866 98.0754878,69.3144459 C100.377278,68.4810112 101.925103,65.5838121 102.716302,60.6219474 C103.363888,56.4543235 102.716302,54.05268 100.773543,53.4179182 C98.8666868,52.7831563 96.4749168,52.4853723 93.5964597,52.5250168 C93.1647355,52.5642107 92.7516277,52.5844835 92.3553634,52.5844835 L91.2654148,52.5844835 Z" id="Shape" fill="#0173E6"></path>
        </g>
    </g>
</svg>